REM DIRINDEX 1\3,1\2\4,1\2\5,1\2\6
REM DIRNAME folder01,folder02,folder03,folder04,folder05,folder06
TITLE ""
FILE "122.mp3" MP3
  TRACK 01 AUDIO
    TITLE "4:cjc137_5043"
    INDEX 01 00:00:00
  TRACK 02 AUDIO
    TITLE "0:"
    INDEX 01 00:01:38
  TRACK 03 AUDIO
    TITLE "6:cjc137_5044"
    INDEX 01 00:01:46
  TRACK 04 AUDIO
    TITLE "0:"
    INDEX 01 00:03:12
  TRACK 05 AUDIO
    TITLE "5:cjc137_5045"
    INDEX 01 00:03:15
  TRACK 06 AUDIO
    TITLE "0:"
    INDEX 01 00:04:54
  TRACK 07 AUDIO
    TITLE "4:cjc137_5046"
    INDEX 01 00:05:61
  TRACK 08 AUDIO
    TITLE "0:"
    INDEX 01 00:06:69
  TRACK 09 AUDIO
    TITLE "6:cjc137_5047"
    INDEX 01 00:07:00
  TRACK 10 AUDIO
    TITLE "0:"
    INDEX 01 00:08:09
  TRACK 11 AUDIO
    TITLE "5:cjc137_5048"
    INDEX 01 00:08:13
  TRACK 12 AUDIO
    TITLE "0:"
    INDEX 01 00:09:20
  TRACK 13 AUDIO
    TITLE "4:cjc137_5049"
    INDEX 01 00:10:29
  TRACK 14 AUDIO
    TITLE "0:"
    INDEX 01 00:11:33
  TRACK 15 AUDIO
    TITLE "6:cjc137_5050"
    INDEX 01 00:11:39
  TRACK 16 AUDIO
    TITLE "0:"
    INDEX 01 00:12:26
  TRACK 17 AUDIO
    TITLE "5:cjc137_5051"
    INDEX 01 00:12:32
  TRACK 18 AUDIO
    TITLE "0:"
    INDEX 01 00:13:33
  TRACK 19 AUDIO
    TITLE "4:cjc137_5052"
    INDEX 01 00:14:41
  TRACK 20 AUDIO
    TITLE "0:"
    INDEX 01 00:15:72
  TRACK 21 AUDIO
    TITLE "6:cjc137_5053"
    INDEX 01 00:16:02
  TRACK 22 AUDIO
    TITLE "0:"
    INDEX 01 00:17:23
  TRACK 23 AUDIO
    TITLE "5:cjc137_5054"
    INDEX 01 00:17:29
  TRACK 24 AUDIO
    TITLE "0:"
    INDEX 01 00:18:56
  TRACK 25 AUDIO
    TITLE "4:cjc137_5055"
    INDEX 01 00:19:65
  TRACK 26 AUDIO
    TITLE "0:"
    INDEX 01 00:21:09
  TRACK 27 AUDIO
    TITLE "6:cjc137_5056"
    INDEX 01 00:21:15
  TRACK 28 AUDIO
    TITLE "0:"
    INDEX 01 00:22:27
  TRACK 29 AUDIO
    TITLE "5:cjc137_5057"
    INDEX 01 00:22:30
  TRACK 30 AUDIO
    TITLE "0:"
    INDEX 01 00:23:50
  TRACK 31 AUDIO
    TITLE "4:cjc137_5058"
    INDEX 01 00:24:57
  TRACK 32 AUDIO
    TITLE "0:"
    INDEX 01 00:26:03
  TRACK 33 AUDIO
    TITLE "6:cjc137_5059"
    INDEX 01 00:26:07
  TRACK 34 AUDIO
    TITLE "0:"
    INDEX 01 00:27:36
  TRACK 35 AUDIO
    TITLE "5:cjc137_5060"
    INDEX 01 00:27:39
  TRACK 36 AUDIO
    TITLE "0:"
    INDEX 01 00:28:59
  TRACK 37 AUDIO
    TITLE "4:cjc137_5061"
    INDEX 01 00:29:66
  TRACK 38 AUDIO
    TITLE "0:"
    INDEX 01 00:31:06
  TRACK 39 AUDIO
    TITLE "6:cjc137_5062"
    INDEX 01 00:31:12
  TRACK 40 AUDIO
    TITLE "0:"
    INDEX 01 00:32:29
  TRACK 41 AUDIO
    TITLE "5:cjc137_5063"
    INDEX 01 00:32:35
  TRACK 42 AUDIO
    TITLE "0:"
    INDEX 01 00:33:50
  TRACK 43 AUDIO
    TITLE "4:cjc137_5064"
    INDEX 01 00:34:57
  TRACK 44 AUDIO
    TITLE "0:"
    INDEX 01 00:35:74
  TRACK 45 AUDIO
    TITLE "6:cjc137_5065"
    INDEX 01 00:36:05
  TRACK 46 AUDIO
    TITLE "0:"
    INDEX 01 00:37:26
  TRACK 47 AUDIO
    TITLE "5:cjc137_5066"
    INDEX 01 00:37:30
  TRACK 48 AUDIO
    TITLE "0:"
    INDEX 01 00:38:47
  TRACK 49 AUDIO
    TITLE "4:cjc137_5067"
    INDEX 01 00:39:56
  TRACK 50 AUDIO
    TITLE "0:"
    INDEX 01 00:40:68
  TRACK 51 AUDIO
    TITLE "6:cjc137_5068"
    INDEX 01 00:40:73
  TRACK 52 AUDIO
    TITLE "0:"
    INDEX 01 00:42:23
  TRACK 53 AUDIO
    TITLE "5:cjc137_5069"
    INDEX 01 00:42:27
  TRACK 54 AUDIO
    TITLE "0:"
    INDEX 01 00:43:40
  TRACK 55 AUDIO
    TITLE "4:cjc137_5070"
    INDEX 01 00:44:46
  TRACK 56 AUDIO
    TITLE "0:"
    INDEX 01 00:45:53
  TRACK 57 AUDIO
    TITLE "6:cjc137_5071"
    INDEX 01 00:45:61
  TRACK 58 AUDIO
    TITLE "0:"
    INDEX 01 00:46:60
  TRACK 59 AUDIO
    TITLE "5:cjc137_5072"
    INDEX 01 00:46:64
  TRACK 60 AUDIO
    TITLE "0:"
    INDEX 01 00:47:74
  TRACK 61 AUDIO
    TITLE "4:cjc137_5073"
    INDEX 01 00:49:08
  TRACK 62 AUDIO
    TITLE "0:"
    INDEX 01 00:50:17
  TRACK 63 AUDIO
    TITLE "6:cjc137_5074"
    INDEX 01 00:50:23
  TRACK 64 AUDIO
    TITLE "0:"
    INDEX 01 00:51:38
  TRACK 65 AUDIO
    TITLE "5:cjc137_5075"
    INDEX 01 00:51:42
  TRACK 66 AUDIO
    TITLE "0:"
    INDEX 01 00:52:53
  TRACK 67 AUDIO
    TITLE "4:cjc137_5076"
    INDEX 01 00:53:64
  TRACK 68 AUDIO
    TITLE "0:"
    INDEX 01 00:55:04
  TRACK 69 AUDIO
    TITLE "6:cjc137_5077"
    INDEX 01 00:55:10
  TRACK 70 AUDIO
    TITLE "0:"
    INDEX 01 00:56:33
  TRACK 71 AUDIO
    TITLE "5:cjc137_5078"
    INDEX 01 00:56:41
  TRACK 72 AUDIO
    TITLE "0:"
    INDEX 01 00:57:56
  TRACK 73 AUDIO
    TITLE "4:cjc137_5079"
    INDEX 01 00:58:67
  TRACK 74 AUDIO
    TITLE "0:"
    INDEX 01 00:59:63
  TRACK 75 AUDIO
    TITLE "6:cjc137_5080"
    INDEX 01 00:59:71
  TRACK 76 AUDIO
    TITLE "0:"
    INDEX 01 01:00:53
  TRACK 77 AUDIO
    TITLE "5:cjc137_5081"
    INDEX 01 01:00:60
  TRACK 78 AUDIO
    TITLE "0:"
    INDEX 01 01:01:56
  TRACK 79 AUDIO
    TITLE "4:cjc137_5082"
    INDEX 01 01:02:65
  TRACK 80 AUDIO
    TITLE "0:"
    INDEX 01 01:04:05
  TRACK 81 AUDIO
    TITLE "6:cjc137_5083"
    INDEX 01 01:04:13
  TRACK 82 AUDIO
    TITLE "0:"
    INDEX 01 01:05:56
  TRACK 83 AUDIO
    TITLE "5:cjc137_5084"
    INDEX 01 01:05:64
  TRACK 84 AUDIO
    TITLE "0:"
    INDEX 01 01:07:06
